<?xml version="1.0" standalone="no"?>
<!DOCTYPE svg PUBLIC "-//W3C//DTD SVG 1.1//EN" "http://www.w3.org/Graphics/SVG/1.1/DTD/svg11.dtd" >
<svg xmlns="http://www.w3.org/2000/svg">
<metadata>Generated by IcoMoon</metadata>
<defs>
<font id="apta" horiz-adv-x="1024">
<font-face units-per-em="1024" ascent="960" descent="-64" />
<missing-glyph horiz-adv-x="1024" />
<glyph unicode="&#x20;" horiz-adv-x="512" d="" />
<glyph unicode="&#xe900;" glyph-name="bbm" d="M849.904 829.968c-24.237 46.443-73.055 78.223-128.969 78.223h-533.388c-80.041 0-144.88-65.117-144.88-145.157v-381c0-69.045 48.332-126.993 113.023-141.604l-60.032-212.168c0 0 117.383 114.496 178.296 178.496 24.141-34.097 64.356-55.9 110.797-55.9h330.788c37.696-44 190.571-202.76 190.581-202.771l-63.616 203.709c66.097 8.596 117.496 65.193 117.496 133.589v412.105c0 65.82-47.617 120.768-110.096 132.477zM155.693 125.962l60.428 152.895h-28.575c-57.259 0-103.547 45.916-103.547 103.176v381c0 57.259 46.288 103.824 103.547 103.824h533.388c57.26 0 103.065-46.565 103.065-103.824v-381c0-57.26-45.805-103.176-103.065-103.176h-438.461c-30.832-36-126.78-152.895-126.78-152.895zM928 285.385c0-57.259-45.919-103.861-103.179-103.861h-28.575l60.763-146.879c0 0-96.273 110.879-127.115 146.879h-345.144c-37.779 0-70.832 19.487-88.956 48.908 2.169 2.431 4.133 4.425 5.836 7.092h419.305c80.040 0 145.731 64.468 145.731 144.509v381c0 10.619-1.695 20.971-3.872 30.947 38.489-15.149 65.205-52.625 65.205-96.489v-412.105zM549.197 702.334c0 16.109-9.843 36.523-51.265 36.523h-63.791l-18.115-84h66.453c51.944 0 66.717 24.604 66.717 47.477zM354.333 575.653c0 16.089-9.852 36.537-51.296 36.537h-63.78l-18.144-84h66.483c51.955 0 66.737 24.649 66.737 47.463zM526.172 575.653c0 16.089-9.883 36.537-51.255 36.537h-63.8l-18.165-84h66.504c51.953 0 66.716 24.649 66.716 47.463zM705.96 626.3c0 16.109-9.883 36.557-51.265 36.557h-63.78l-18.165-84h66.464c51.963 0 66.747 24.569 66.747 47.443zM614.467 448.19c51.932 0 66.705 24.675 66.705 47.488 0 16.111-9.841 36.512-51.255 36.512h-63.789l-18.145-84h66.484zM501.485 443.612c0 16.16-9.841 36.579-51.235 36.579h-63.809l-18.144-84h66.483c51.944 0 66.705 24.609 66.705 47.421z" />
<glyph unicode="&#xe901;" glyph-name="calendar" d="M789.333 448.19h64v-64h-64v64zM273.333 448.19h64v-64h-64v64zM374.667 448.19h64v-64h-64v64zM476 448.19h64v-64h-64v64zM580 448.19h64v-64h-64v64zM684 448.19h64v-64h-64v64zM170.667 358.857h64v-64h-64v64zM789.333 358.857h64v-64h-64v64zM273.333 358.857h64v-64h-64v64zM374.667 358.857h64v-64h-64v64zM476 358.857h64v-64h-64v64zM580 358.857h64v-64h-64v64zM684 358.857h64v-64h-64v64zM170.667 273.524h64v-64h-64v64zM789.333 273.524h64v-64h-64v64zM273.333 273.524h64v-64h-64v64zM374.667 273.524h64v-64h-64v64zM476 273.524h64v-64h-64v64zM580 273.524h64v-64h-64v64zM684 273.524h64v-64h-64v64zM170.667 181.524h64v-64h-64v64zM273.333 181.524h64v-64h-64v64zM374.667 181.524h64v-64h-64v64zM476 181.524h64v-64h-64v64zM580 181.524h64v-64h-64v64zM684 181.524h64v-64h-64v64zM914.683 737.524h-146.683v85.333h-42.667v-85.333h-192v85.333h-42.667v-85.333h-192v85.333h-42.667v-85.333h-146.667c-36.819 0-66.667-29.848-66.667-66.667v-592c0-36.819 29.848-66.667 66.667-66.667h805.349c36.819 0 66.651 29.848 66.651 66.667v592c0 36.819-29.832 66.667-66.651 66.667zM938.667 78.857c0-13.233-10.751-24-23.984-24h-805.349c-13.233 0-24 10.767-24 24v425.333h853.333v-425.333zM938.667 546.857h-853.333v124c0 13.233 10.767 24 24 24h146.667v-42.667h-21.333v-85.333h85.333v85.333h-21.333v42.667h192v-42.667h-21.333v-85.333h85.333v85.333h-21.333v42.667h192v-42.667h-24v-85.333h88v85.333h-21.333v42.667h146.683c13.233 0 23.984-10.767 23.984-24v-124z" />
<glyph unicode="&#xe902;" glyph-name="down-arrow" d="M512 318.177l-362.039 362.040-60.34-60.34 422.379-422.38 422.379 422.38-60.34 60.34z" />
<glyph unicode="&#xe903;" glyph-name="facebook-official" d="M706.588-73.032v396.625h132.653l19.996 154.649h-152.649v98.656c0 24.887 5.221 43.551 15.665 55.993 10.441 12.443 30.773 18.665 60.993 18.665l81.324 0.667v137.984c-27.996 4-67.548 6-118.652 6-60.439 0-108.767-17.776-144.984-53.328-36.22-35.552-54.329-85.768-54.329-150.651v-113.988h-133.317v-154.649h133.317v-396.625h159.983z" />
<glyph unicode="&#xe904;" glyph-name="right-arrow" d="M322.239 0.437l-47.141 47.14 403.096 403.097-403.097 403.096 47.141 47.141 450.236-450.237z" />
<glyph unicode="&#xe905;" glyph-name="search-rtl" d="M55.163-17.98c16.663-16.661 43.679-16.661 60.34 0l241.972 241.972c65.712-52.569 149.051-84.023 239.749-84.023 212.137 0 384.109 171.971 384.109 384.111s-171.972 384.111-384.111 384.111-384.111-171.972-384.111-384.111c0-90.697 31.453-174.036 84.023-239.749l-241.972-241.971c-16.661-16.661-16.661-43.677 0-60.34zM298.445 524.080c0 165.011 133.765 298.777 298.777 298.777s298.777-133.767 298.777-298.777c0-165.012-133.767-298.777-298.777-298.777-165.012 0-298.777 133.765-298.777 298.777z" />
<glyph unicode="&#xe906;" glyph-name="tollfree" d="M751.101 557.037c38.232 52.487 38.232 148.709-15.008 209.819l-82.328 71.133-97.383-112.712c49.436-42.713 48.829-113.22 9.379-158.883l-192.539-222.841c-39.463-45.673-102.831-49.209-152.267-6.493l-98.063-113.497 82.329-71.135c72.111-43.125 143.001-42.237 210.453 16.391l335.425 388.219zM573.056 907.712l48.429-41.843-96.762-111.992-48.429 41.843 96.762 111.992zM42.193 293.29l96.763 111.993 48.429-41.843-96.763-111.993-48.429 41.843zM362.667 80.19h-42.667c0-61.333 50.011-112 111.481-112h144.519v42.667h-144.519c-37.945 0-68.815 32-68.815 69.333zM600.961-18.614l85.334 128.008 35.502-23.666-85.334-128.008-35.502 23.666zM686.294-18.61l85.334 128.008 35.502-23.666-85.334-128.008-35.502 23.666zM771.627-18.605l85.334 128.008 35.502-23.666-85.334-128.008-35.502 23.666zM856.96-18.601l85.334 128.008 35.502-23.666-85.334-128.008-35.502 23.666z" />
<glyph unicode="&#xe907;" glyph-name="tollfree-rtl" d="M648.959 343.553l-192.54 222.841c-39.451 45.663-40.057 116.168 9.379 158.883l-97.383 112.712-82.328-71.133c-53.24-61.108-53.24-157.332-15.008-209.817l335.425-388.219c67.452-58.628 138.343-59.516 210.453-16.391l82.329 71.135-98.064 113.497c-49.435-42.717-112.803-39.18-152.264 6.492zM449.131 907.716l96.762-111.992-48.429-41.843-96.762 111.992 48.429 41.843zM834.838 363.441l48.429 41.843 96.762-111.992-48.429-41.843-96.762 111.992zM590.699 11.524h-144.517v-42.667h144.519c61.472 0 111.481 50.011 111.481 111.481h-42.667c0-37.945-30.871-68.815-68.816-68.815zM385.809-42.296l-85.334 128.008 35.503 23.667 85.334-128.008-35.503-23.667zM300.475-42.3l-85.334 128.008 35.503 23.667 85.334-128.008-35.503-23.667zM215.142-42.304l-85.334 128.008 35.503 23.667 85.334-128.008-35.503-23.667zM129.808-42.309l-85.334 128.008 35.503 23.667 85.334-128.008-35.503-23.667z" />
<glyph unicode="&#xe908;" glyph-name="left-arrow" d="M701.761-11.753l-450.235 450.237 450.236 450.237 47.141-47.141-403.097-403.096 403.096-403.097z" />
<glyph unicode="&#xe909;" glyph-name="search" d="M968.837 30.17l-241.972 241.971c52.569 65.712 84.023 149.051 84.023 239.749 0 212.139-171.971 384.111-384.111 384.111s-384.111-171.972-384.111-384.111 171.972-384.111 384.111-384.111c90.697 0 174.036 31.453 239.749 84.023l241.972-241.972c16.661-16.661 43.677-16.661 60.34 0 16.66 16.663 16.66 43.679-0.001 60.34zM426.777 213.112c-165.011 0-298.777 133.765-298.777 298.777 0 165.011 133.767 298.777 298.777 298.777 165.012 0 298.777-133.767 298.777-298.777 0-165.012-133.765-298.777-298.777-298.777z" />
<glyph unicode="&#xe90a;" glyph-name="left-arrow-thick" d="M673.477-27.847l-478.52 478.521 478.521 478.52 103.709-103.708-374.812-374.812 374.811-374.813z" />
<glyph unicode="&#xe90b;" glyph-name="right-arrow-thick" d="M350.523-27.847l-103.709 103.708 374.812 374.813-374.813 374.812 103.709 103.708 478.521-478.52z" />
<glyph unicode="&#xe90c;" glyph-name="download-o" d="M925.384 358.135c-9.935 0-17.972-8.037-17.972-17.972v-143.784c0-29.733-24.187-53.92-53.919-53.92h-682.977c-29.732 0-53.919 24.188-53.919 53.92v143.783c0 9.935-8.039 17.972-17.973 17.972-9.933 0-17.972-8.037-17.972-17.972v-143.784c0-49.549 40.316-89.865 89.865-89.865h682.976c49.549 0 89.864 40.316 89.864 89.865v143.784c0 9.935-8.039 17.973-17.973 17.973zM499.297 345.427c3.509-3.511 8.109-5.265 12.707-5.265s9.196 1.755 12.708 5.265l197.703 197.704c7.021 7.020 7.021 18.395 0 25.415s-18.393 7.021-25.416 0l-167.023-167.021v369.991c0 9.935-8.037 17.972-17.972 17.972s-17.973-8.037-17.973-17.972v-369.992l-167.023 167.023c-7.021 7.021-18.395 7.021-25.416 0-7.021-7.020-7.021-18.393 0-25.415l197.705-197.704z" />
<glyph unicode="&#xe90d;" glyph-name="email-o" d="M892.807 749.092c29.243 0 53.148-23.889 53.148-53.129v-495.936c0-29.241-23.907-53.112-53.148-53.112h-761.633c-29.223 0-53.147 23.871-53.147 53.112v495.936c0 29.241 23.924 53.129 53.147 53.129h761.633zM892.807 784.529h-761.633c-48.724 0-88.549-39.843-88.549-88.567v-495.936c0-48.724 39.825-88.565 88.549-88.565h761.635c48.725 0 88.568 39.841 88.568 88.565v495.936c-0.001 48.724-39.844 88.567-88.569 88.567zM369.423 435.608l-218.784-188.647c-7.056-6.215-7.952-17.693-1.756-24.817 6.196-7.057 17.693-7.935 24.8-1.755l222.295 192.157-26.555 23.061zM653.683 434.695l-26.537-23.905 219.608-192.195c7.091-6.176 18.604-5.3 24.784 1.792 6.212 7.055 5.335 18.604-1.756 24.784l-216.099 189.524zM870.693 672.057c-6.212 7.091-17.728 7.968-24.783 1.772l-333.915-291.368-338.313 292.247c-7.108 6.213-18.604 5.317-24.8-1.756-6.196-7.091-5.3-18.605 1.756-24.819l349.843-301.971c3.545-2.668 7.091-4.46 11.515-4.46s7.968 1.792 11.521 4.46l345.387 301.971c7.055 5.337 7.967 16.833 1.789 23.924z" />
<glyph unicode="&#xe90e;" glyph-name="print-o" d="M889.439 645.704h-89.864v125.811c0 29.733-24.188 53.919-53.92 53.919h-467.3c-29.733 0-53.919-24.187-53.919-53.919v-125.811h-89.865c-39.649 0-71.893-32.244-71.893-71.892v-287.569c0-39.649 32.244-71.893 71.893-71.893h89.865v-89.864c0-29.732 24.185-53.919 53.919-53.919h467.299c29.733 0 53.92 24.188 53.92 53.919v89.864h89.864c39.648 0 71.892 32.244 71.892 71.893v287.568c0.001 39.649-32.243 71.893-71.891 71.893zM260.381 771.515c0 9.917 8.056 17.972 17.973 17.972h467.299c9.917 0 17.972-8.056 17.972-17.972v-125.811h-503.244v125.811zM763.627 124.484c0-9.917-8.055-17.972-17.972-17.972h-467.3c-9.917 0-17.973 8.056-17.973 17.972v233.651h503.245v-233.651zM925.384 286.243c0-19.799-16.147-35.947-35.945-35.947h-89.864v107.839c0 19.815-16.148 35.945-35.948 35.945h-503.245c-19.833 0-35.945-16.131-35.945-35.945v-107.839h-89.865c-19.833 0-35.947 16.148-35.947 35.947v287.568c0 19.833 16.112 35.945 35.947 35.945h754.869c19.799 0 35.945-16.112 35.945-35.945v-287.568zM350.247 250.296h323.515c9.933 0 17.972 8.039 17.972 17.972 0 9.936-8.039 17.973-17.972 17.973h-323.515c-9.935 0-17.973-8.037-17.973-17.973 0-9.933 8.039-17.972 17.973-17.972zM350.247 178.404h233.649c9.933 0 17.973 8.039 17.973 17.973s-8.040 17.972-17.973 17.972h-233.649c-9.935 0-17.973-8.037-17.973-17.972s8.039-17.973 17.973-17.973zM799.575 501.919c0-19.868-16.079-35.945-35.948-35.945s-35.945 16.077-35.945 35.945c0 19.869 16.077 35.947 35.945 35.947s35.948-16.077 35.948-35.947z" />
<glyph unicode="&#xe90f;" glyph-name="tick" d="M957.651 852.833c-285.696-175.159-493.003-396.16-586.145-507.063l-228.108 178.716-100.731-81.205 394.156-400.856c67.839 173.753 282.676 513.356 545.009 754.639l-24.181 55.769z" />
<glyph unicode="&#xea92;" glyph-name="instagram" d="M512 867.8c136.8 0 153-0.6 206.8-3 50-2.2 77-10.6 95-17.6 23.8-9.2 41-20.4 58.8-38.2 18-18 29-35 38.4-58.8 7-18 15.4-45.2 17.6-95 2.4-54 3-70.2 3-206.8s-0.6-153-3-206.8c-2.2-50-10.6-77-17.6-95-9.2-23.8-20.4-41-38.2-58.8-18-18-35-29-58.8-38.4-18-7-45.2-15.4-95-17.6-54-2.4-70.2-3-206.8-3s-153 0.6-206.8 3c-50 2.2-77 10.6-95 17.6-23.8 9.2-41 20.4-58.8 38.2-18 18-29 35-38.4 58.8-7 18-15.4 45.2-17.6 95-2.4 54-3 70.2-3 206.8s0.6 153 3 206.8c2.2 50 10.6 77 17.6 95 9.2 23.8 20.4 41 38.2 58.8 18 18 35 29 58.8 38.4 18 7 45.2 15.4 95 17.6 53.8 2.4 70 3 206.8 3zM512 960c-139 0-156.4-0.6-211-3-54.4-2.4-91.8-11.2-124.2-23.8-33.8-13.2-62.4-30.6-90.8-59.2-28.6-28.4-46-57-59.2-90.6-12.6-32.6-21.4-69.8-23.8-124.2-2.4-54.8-3-72.2-3-211.2s0.6-156.4 3-211c2.4-54.4 11.2-91.8 23.8-124.2 13.2-33.8 30.6-62.4 59.2-90.8 28.4-28.4 57-46 90.6-59 32.6-12.6 69.8-21.4 124.2-23.8 54.6-2.4 72-3 211-3s156.4 0.6 211 3c54.4 2.4 91.8 11.2 124.2 23.8 33.6 13 62.2 30.6 90.6 59s46 57 59 90.6c12.6 32.6 21.4 69.8 23.8 124.2 2.4 54.6 3 72 3 211s-0.6 156.4-3 211c-2.4 54.4-11.2 91.8-23.8 124.2-12.6 34-30 62.6-58.6 91-28.4 28.4-57 46-90.6 59-32.6 12.6-69.8 21.4-124.2 23.8-54.8 2.6-72.2 3.2-211.2 3.2v0zM512 711c-145.2 0-263-117.8-263-263s117.8-263 263-263 263 117.8 263 263c0 145.2-117.8 263-263 263zM512 277.4c-94.2 0-170.6 76.4-170.6 170.6s76.4 170.6 170.6 170.6c94.2 0 170.6-76.4 170.6-170.6s-76.4-170.6-170.6-170.6zM846.8 721.4c0-33.91-27.49-61.4-61.4-61.4s-61.4 27.49-61.4 61.4c0 33.91 27.49 61.4 61.4 61.4s61.4-27.49 61.4-61.4z" />
<glyph unicode="&#xf02f;" glyph-name="print" horiz-adv-x="951" d="M219.429 73.143h512v146.286h-512v-146.286zM219.429 438.857h512v219.429h-91.429q-22.857 0-38.857 16t-16 38.857v91.429h-365.714v-365.714zM877.714 402.286q0 14.857-10.857 25.714t-25.714 10.857-25.714-10.857-10.857-25.714 10.857-25.714 25.714-10.857 25.714 10.857 10.857 25.714zM950.857 402.286v-237.714q0-7.429-5.429-12.857t-12.857-5.429h-128v-91.429q0-22.857-16-38.857t-38.857-16h-548.571q-22.857 0-38.857 16t-16 38.857v91.429h-128q-7.429 0-12.857 5.429t-5.429 12.857v237.714q0 45.143 32.286 77.429t77.429 32.286h36.571v310.857q0 22.857 16 38.857t38.857 16h384q22.857 0 50.286-11.429t43.429-27.429l86.857-86.857q16-16 27.429-43.429t11.429-50.286v-146.286h36.571q45.143 0 77.429-32.286t32.286-77.429z" />
<glyph unicode="&#xf099;" glyph-name="twitter" horiz-adv-x="951" d="M925.714 717.714q-38.286-56-92.571-95.429 0.571-8 0.571-24 0-74.286-21.714-148.286t-66-142-105.429-120.286-147.429-83.429-184.571-31.143q-154.857 0-283.429 82.857 20-2.286 44.571-2.286 128.571 0 229.143 78.857-60 1.143-107.429 36.857t-65.143 91.143q18.857-2.857 34.857-2.857 24.571 0 48.571 6.286-64 13.143-106 63.714t-42 117.429v2.286q38.857-21.714 83.429-23.429-37.714 25.143-60 65.714t-22.286 88q0 50.286 25.143 93.143 69.143-85.143 168.286-136.286t212.286-56.857q-4.571 21.714-4.571 42.286 0 76.571 54 130.571t130.571 54q80 0 134.857-58.286 62.286 12 117.143 44.571-21.143-65.714-81.143-101.714 53.143 5.714 106.286 28.571z" />
<glyph unicode="&#xf09a;" glyph-name="facebook, facebook-f" horiz-adv-x="602" d="M548 944v-150.857h-89.714q-49.143 0-66.286-20.571t-17.143-61.714v-108h167.429l-22.286-169.143h-145.143v-433.714h-174.857v433.714h-145.714v169.143h145.714v124.571q0 106.286 59.429 164.857t158.286 58.571q84 0 130.286-6.857z" />
<glyph unicode="&#xf167;" glyph-name="youtube" horiz-adv-x="878" d="M554.857 240v-120.571q0-38.286-22.286-38.286-13.143 0-25.714 12.571v172q12.571 12.571 25.714 12.571 22.286 0 22.286-38.286zM748 239.428v-26.286h-51.429v26.286q0 38.857 25.714 38.857t25.714-38.857zM196 364h61.143v53.714h-178.286v-53.714h60v-325.143h57.143v325.143zM360.571 38.857h50.857v282.286h-50.857v-216q-17.143-24-32.571-24-10.286 0-12 12-0.571 1.714-0.571 20v208h-50.857v-223.429q0-28 4.571-41.714 6.857-21.143 33.143-21.143 27.429 0 58.286 34.857v-30.857zM605.714 123.428v112.571q0 41.714-5.143 56.571-9.714 32-40.571 32-28.571 0-53.143-30.857v124h-50.857v-378.857h50.857v27.429q25.714-31.429 53.143-31.429 30.857 0 40.571 31.429 5.143 15.429 5.143 57.143zM798.857 129.143v7.429h-52q0-29.143-1.143-34.857-4-20.571-22.857-20.571-26.286 0-26.286 39.429v49.714h102.286v58.857q0 45.143-15.429 66.286-22.286 29.143-60.571 29.143-38.857 0-61.143-29.143-16-21.143-16-66.286v-98.857q0-45.143 16.571-66.286 22.286-29.143 61.714-29.143 41.143 0 61.714 30.286 10.286 15.429 12 30.857 1.143 5.143 1.143 33.143zM451.429 650.857v120q0 39.429-24.571 39.429t-24.571-39.429v-120q0-40 24.571-40t24.571 40zM862.286 221.714q0-133.714-14.857-200-8-33.714-33.143-56.571t-58.286-26.286q-105.143-12-317.143-12t-317.143 12q-33.143 3.429-58.571 26.286t-32.857 56.571q-14.857 64-14.857 200 0 133.714 14.857 200 8 33.714 33.143 56.571t58.857 26.857q104.571 11.429 316.571 11.429t317.143-11.429q33.143-4 58.571-26.857t32.857-56.571q14.857-64 14.857-200zM292 950.857h58.286l-69.143-228v-154.857h-57.143v154.857q-8 42.286-34.857 121.143-21.143 58.857-37.143 106.857h60.571l40.571-150.286zM503.429 760.571v-100q0-46.286-16-67.429-21.143-29.143-60.571-29.143-38.286 0-60 29.143-16 21.714-16 67.429v100q0 45.714 16 66.857 21.714 29.143 60 29.143 39.429 0 60.571-29.143 16-21.143 16-66.857zM694.857 853.143v-285.143h-52v31.429q-30.286-35.429-58.857-35.429-26.286 0-33.714 21.143-4.571 13.714-4.571 42.857v225.143h52v-209.714q0-18.857 0.571-20 1.714-12.571 12-12.571 15.429 0 32.571 24.571v217.714h52z" />
<glyph unicode="&#xf16a;" glyph-name="youtube-play" d="M731.429 438.857q0 21.143-17.143 30.857l-292.571 182.857q-17.714 11.429-37.143 1.143-18.857-10.286-18.857-32v-365.714q0-21.714 18.857-32 9.143-4.571 17.714-4.571 11.429 0 19.429 5.714l292.571 182.857q17.143 9.714 17.143 30.857zM1024 438.857q0-54.857-0.571-85.714t-4.857-78-12.857-84.286q-9.143-41.714-39.429-70.286t-70.857-33.143q-126.857-14.286-383.429-14.286t-383.429 14.286q-40.571 4.571-71.143 33.143t-39.714 70.286q-8 37.143-12.286 84.286t-4.857 78-0.571 85.714 0.571 85.714 4.857 78 12.857 84.286q9.143 41.714 39.429 70.286t70.857 33.143q126.857 14.286 383.429 14.286t383.429-14.286q40.571-4.571 71.143-33.143t39.714-70.286q8-37.143 12.286-84.286t4.857-78 0.571-85.714z" />
<glyph unicode="&#xf232;" glyph-name="whatsapp" horiz-adv-x="878" d="M562.857 394.286q7.429 0 55.714-25.143t51.143-30.286q1.143-2.857 1.143-8.571 0-18.857-9.714-43.429-9.143-22.286-40.571-37.429t-58.286-15.143q-32.571 0-108.571 35.429-56 25.714-97.143 67.429t-84.571 105.714q-41.143 61.143-40.571 110.857v4.571q1.714 52 42.286 90.286 13.714 12.571 29.714 12.571 3.429 0 10.286-0.857t10.857-0.857q10.857 0 15.143-3.714t8.857-15.714q4.571-11.429 18.857-50.286t14.286-42.857q0-12-19.714-32.857t-19.714-26.571q0-4 2.857-8.571 19.429-41.714 58.286-78.286 32-30.286 86.286-57.714 6.857-4 12.571-4 8.571 0 30.857 27.714t29.714 27.714zM446.857 91.428q72.571 0 139.143 28.571t114.571 76.571 76.571 114.571 28.571 139.143-28.571 139.143-76.571 114.571-114.571 76.571-139.143 28.571-139.143-28.571-114.571-76.571-76.571-114.571-28.571-139.143q0-116 68.571-210.286l-45.143-133.143 138.286 44q90.286-59.429 197.143-59.429zM446.857 881.143q87.429 0 167.143-34.286t137.429-92 92-137.429 34.286-167.143-34.286-167.143-92-137.429-137.429-92-167.143-34.286q-111.429 0-208.571 53.714l-238.286-76.571 77.714 231.429q-61.714 101.714-61.714 222.286 0 87.429 34.286 167.143t92 137.429 137.429 92 167.143 34.286z" />
</font>
</defs>
</svg>
